<svg width="32" height="32" viewBox="0 0 32 32" fill="none" xmlns="http://www.w3.org/2000/svg">
  <circle cx="16" cy="16" r="16" fill="#F7931A"/>
  <path d="M22.5 14.25c.25-1.75-1-2.75-3-3.25l.625-2.5-1.5-.375-.625 2.375c-.375-.125-.75-.25-1.125-.25l.625-2.5-1.5-.375-.625 2.5c-.25-.125-.625-.25-.875-.375v-.125l-2.125-.5-.375 1.625s1 .25 1 .25c.5.125.625.5.625.75l-.625 2.5c0 0 .125 0 .125.125 0 0-.125 0-.125-.125l-.875 3.5c-.125.125-.25.375-.625.25 0 .125-1 0-1 0l-.625 1.75 2 .5c.375.125.75.125 1.125.25l-.625 2.625 1.5.375.625-2.5c.375.125.875.25 1.25.375l-.625 2.5 1.5.375.625-2.625c2.375.5 4.125.25 4.875-1.875.625-1.75 0-2.75-1.25-3.375.875-.25 1.625-.875 1.75-2.125zM19 18.625c-.5 1.75-3.25.875-4.125.625l.75-3c.875.25 3.75.75 3.375 2.375zm.5-4.5c-.375 1.625-2.75.875-3.5.625l.625-2.75c.75.25 3.125.625 2.875 2.125z" fill="white"/>
</svg> 