<svg width="32" height="32" viewBox="0 0 32 32" fill="none" xmlns="http://www.w3.org/2000/svg">
  <circle cx="16" cy="16" r="16" fill="#6FBCF0"/>
  <path d="M20.5 10.5H16.5C13.4624 10.5 11 12.9624 11 16C11 19.0376 13.4624 21.5 16.5 21.5H20.5C20.7761 21.5 21 21.2761 21 21V11C21 10.7239 20.7761 10.5 20.5 10.5Z" fill="white"/>
  <path d="M16.5 18.5C17.8807 18.5 19 17.3807 19 16C19 14.6193 17.8807 13.5 16.5 13.5C15.1193 13.5 14 14.6193 14 16C14 17.3807 15.1193 18.5 16.5 18.5Z" fill="#6FBCF0"/>
</svg> 