<svg width="32" height="32" viewBox="0 0 32 32" fill="none" xmlns="http://www.w3.org/2000/svg">
  <circle cx="16" cy="16" r="16" fill="#2775CA"/>
  <path d="M16 6C10.48 6 6 10.48 6 16C6 21.52 10.48 26 16 26C21.52 26 26 21.52 26 16C26 10.48 21.52 6 16 6ZM16.95 20.71C15.02 20.71 13.45 19.93 12.54 18.03L14.1 17.24C14.65 18.43 15.58 19.08 16.95 19.08C18.48 19.08 19.52 18.16 19.52 16.79C19.52 15.42 18.48 14.5 16.95 14.5H14.95V12.87H16.95C18.18 12.87 19.1 11.95 19.1 10.76C19.1 9.5 18.18 8.66 16.95 8.66C15.82 8.66 14.93 9.29 14.42 10.4L12.86 9.65C13.7 7.87 15.24 7.03 16.95 7.03C19.32 7.03 20.9 8.61 20.9 10.76C20.9 12.37 19.93 13.55 18.6 13.91C20.08 14.19 21.32 15.34 21.32 16.79C21.32 19.06 19.51 20.71 16.95 20.71Z" fill="white"/>
</svg> 